<svg xmlns="http://www.w3.org/2000/svg" xmlns:xlink="http://www.w3.org/1999/xlink" xmlns:serif="http://www.serif.com/" viewBox="0 0 143 84" version="1.1" xml:space="preserve" style="fill-rule:evenodd;clip-rule:evenodd;stroke-linejoin:round;stroke-miterlimit:1.41421;"><rect id="logo-r3d-white-old" x="0" y="0" width="142.56" height="92.16" style="fill:none;"/><g><g><clipPath id="_clip1"><rect x="16.866" y="12.483" width="110.95" height="58.798" clip-rule="nonzero"/></clipPath><g clip-path="url(#_clip1)"><path d="M74.213,18.904l0,-5.992c0,0 22.454,-0.021 22.49,-0.019c8.608,0.502 14.375,1.795 19.961,5.301c7.679,4.821 10.79,13.26 11.128,22.373c0.531,14.297 -7.751,26.564 -25.13,27.703c-0.025,0.001 -28.446,0.01 -28.446,0.01l0,-3.626c2.889,-1.107 5.881,-2.711 8.837,-5.269c2.041,-1.766 4.783,-4.622 5.159,-9.07c0.56,-6.629 -4.722,-7.61 -4.722,-7.61c5.32,-2.918 8.489,-6.892 9.718,-11.723c0.36,-1.414 0.428,-2.633 0.283,-3.68c-0.637,-4.324 -5.199,-5.136 -7.579,-4.943c-5.215,0.422 -9.498,3.942 -11.698,5.939l-0.001,-7.121c0.291,-0.156 0.58,-0.309 0.867,-0.459c5.227,-2.731 13.48,-5.225 18.509,-3.056c0.476,0.205 0.402,0.153 0.839,0.394c3.368,1.586 6.673,5.177 4.356,12.556c-0.255,-0.024 -0.515,-0.039 -0.781,-0.043c-0.027,-0.001 -3.59,0.028 -3.59,0.028l0,8.096c-0.878,1.169 -1.519,1.875 -1.519,1.875c-0.283,0.697 0.069,1.046 0.52,1.019c0.11,-0.013 0.217,-0.04 0.32,-0.081c0.037,-0.016 0.075,-0.033 0.112,-0.054c0,-0.001 0,-0.001 0,-0.001c0.14,-0.08 0.272,-0.195 0.385,-0.346c0.061,-0.082 0.121,-0.165 0.182,-0.248l0,11.606c0,0 3.039,0.007 3.054,0.006c2.266,-0.062 4.259,-0.81 5.458,-1.485c3.412,-1.922 5.1,-4.52 5.086,-9.343c-0.017,-6.05 -2.733,-8.03 -4.406,-9.257c-0.715,-0.525 -1.942,-1.192 -3.492,-1.554c0.041,-0.132 0.08,-0.264 0.116,-0.395c0.396,-1.422 2.128,-7.146 -1.093,-11.249c-1.003,-1.059 -2.179,-1.836 -3.466,-2.384c1.287,0.548 2.463,1.325 3.466,2.384c-5.838,-7.436 -18.486,-3.36 -24.42,-0.526c-0.166,0.08 -0.334,0.161 -0.503,0.244Zm-20.295,49.357l-7.523,0l-4.953,-9.957c1.103,-4.032 3.798,-9.66 8.286,-15.558c5.263,-6.918 10.22,-11.759 14.87,-15.364c0.233,1.445 0.328,3.036 0.277,4.803c-0.216,7.493 -1.968,11.09 -10.645,14.066l12.01,17.199c-4.12,2.12 -8.622,3.891 -12.322,4.811Zm15.682,0l-8.996,0c2.571,-0.602 4.962,-1.212 6.754,-1.623c0.315,-0.072 0.633,-0.146 0.954,-0.222l1.288,1.845Zm-29.472,-12.6l-3.211,-6.454l0,18.924l-19.742,0.005l0.009,-55.653c0,0 27.85,0.007 27.865,0.007c3.07,-0.007 8.48,1.214 11.885,3.506c3.49,2.348 5.955,5.095 7.145,9.091c-2.065,1.529 -4.171,3.27 -6.266,5.246c-5.715,5.391 -14.075,15.953 -17.255,24.136c-0.158,0.405 -0.301,0.802 -0.43,1.192Zm34.086,-25.319c0.047,0.002 0.093,-0.001 0.136,-0.009c0.321,-0.058 5.403,-4.25 10.815,-4.187c3.232,0.038 4.51,4.053 3.374,7.399c-1.202,3.542 -6.155,6.48 -8.777,7.899c-1.545,0.836 -2.667,0.959 -2.641,1.584c0.014,0.346 2.398,0.958 2.97,3.08c1.46,5.412 -1.57,8.891 -5.876,12.317l-0.001,-28.083Zm-24.646,10.717c-1.936,2.527 -3.831,5.342 -5.572,8.53c1.741,-3.188 3.636,-6.003 5.572,-8.53Zm-5.969,-4.849c-0.632,0.535 -2.066,1.021 -3.331,0.997c-0.025,0 -3.332,-0.024 -3.332,-0.024l0,-9.713c0,0 3.565,-0.014 3.599,-0.014c1.26,-0.005 2.529,0.413 3.453,1.264c0.601,0.554 1.407,1.263 1.387,3.502c-0.022,2.312 -0.973,3.308 -1.776,3.988Zm19.153,-9.033l-0.078,0.063l0.026,-0.02l0.052,-0.043Zm0.227,-0.182l-0.143,0.114c0.048,-0.038 0.095,-0.076 0.143,-0.114Zm0.166,-0.132l-0.086,0.068l0.05,-0.04l0.036,-0.028Zm0.179,-0.142l-0.1,0.079l0.022,-0.017l0.078,-0.062Zm0.214,-0.167l-0.12,0.094l0.101,-0.08l0.019,-0.014Zm0.17,-0.132l-0.1,0.077l0.048,-0.037l0.052,-0.04Zm0.223,-0.171l-0.156,0.119c0.052,-0.04 0.104,-0.079 0.156,-0.119Zm0.168,-0.128l-0.124,0.095l0.092,-0.071l0.032,-0.024Zm0.181,-0.137l-0.121,0.092l0.045,-0.034l0.076,-0.058Z" style="fill:#fff;"/></g></g></g></svg>